<svg id="a" width="32px" height="32px" version="1.1" viewBox="0 0 32 32" xmlns="http://www.w3.org/2000/svg">
 <g transform="translate(-.75623 .062844)">
  <g transform="matrix(1.3359 0 0 1.3359 -5.6154 -.15642)">
   <path d="m13.799 10.266 3.5482-0.0075 1.5581-2.7996" fill="none" stroke="#181a1b" stroke-dashoffset="18.898" stroke-linecap="round" stroke-linejoin="round"/>
   <path transform="matrix(3.1387 0 0 3.1387 24.186 -10.092)" d="m-2.3672 3.3398c-1.6723 0.01386-2.9846 1.3491-2.9844 2.9863 1.444e-4 1.1077 0.53834 1.8813 1.2642 2.9294l0.49067 0.77638c0.83601 1.2406 0.68887 0.7279 0.70998-0.071046v-1.3623c0.00486-0.3348 0.1516-0.012155 0.16016-0.30411 6.589e-4 -0.19241 0.010316-0.17735-0.16283-0.21962-0.053239-0.015718-0.10541-0.033664-0.15641-0.053724-0.051006-0.020059-0.10085-0.042232-0.14943-0.0664-0.048585-0.024168-0.095912-0.050333-0.14189-0.078378-0.045976-0.028045-0.0906-0.057969-0.13378-0.089657-0.043179-0.031688-0.084912-0.065139-0.12511-0.10024-0.040194-0.035098-0.078849-0.071844-0.11587-0.11012s-0.07241-0.078082-0.10607-0.1193c-0.033661-0.041221-0.065595-0.083856-0.095707-0.12779-0.030113-0.043933-0.058404-0.089163-0.08478-0.13557-0.026376-0.046412-0.050838-0.094005-0.07329-0.14266-0.022452-0.048658-0.042895-0.098381-0.061236-0.14905-0.01834-0.050671-0.034577-0.10229-0.048618-0.15474-0.01404-0.052452-0.025883-0.10574-0.035436-0.15973-0.00955-0.053999-0.016814-0.10871-0.021691-0.16403-0.00488-0.055314-0.00737-0.11123-0.00738-0.16762 4.28e-5 -1.0414 0.83952-1.8839 1.8789-1.8926zm0 0c1.6723 0.01386 2.9846 1.3491 2.9844 2.9863-1.444e-4 1.1077-0.53834 1.8813-1.2642 2.9294l-0.49067 0.77638c-0.83601 1.2406-0.68887 0.7279-0.70998-0.071046v-1.3623c-0.00486-0.3348-0.1516-0.012155-0.16016-0.30411-6.589e-4 -0.19241-0.010316-0.17735 0.16283-0.21962 0.053239-0.015718 0.10541-0.033664 0.15641-0.053724 0.051006-0.020059 0.10085-0.042232 0.14943-0.0664 0.048585-0.024168 0.095912-0.050333 0.14189-0.078378 0.045976-0.028045 0.0906-0.057969 0.13378-0.089657 0.043179-0.031688 0.084912-0.065139 0.12511-0.10024 0.040194-0.035098 0.078849-0.071844 0.11587-0.11012s0.07241-0.078082 0.10607-0.1193c0.033661-0.041221 0.065595-0.083856 0.095707-0.12779 0.030113-0.043933 0.058404-0.089163 0.08478-0.13557 0.026376-0.046412 0.050838-0.094005 0.07329-0.14266 0.022452-0.048658 0.042895-0.098381 0.061236-0.14905 0.01834-0.050671 0.034577-0.10229 0.048618-0.15474 0.01404-0.052452 0.025883-0.10574 0.035436-0.15973 0.00955-0.053999 0.016814-0.10871 0.021691-0.16403 0.00488-0.055314 0.00737-0.11123 0.00738-0.16762-4.28e-5 -1.0414-0.83952-1.8839-1.8789-1.8926z" fill="#181a1b" style="font-variation-settings:normal"/>
  </g>
 </g>
</svg>
